<?xml version="1.0" encoding="UTF-8" standalone="no"?>
<svg
   xmlns:dc="http://purl.org/dc/elements/1.1/"
   xmlns:cc="http://creativecommons.org/ns#"
   xmlns:rdf="http://www.w3.org/1999/02/22-rdf-syntax-ns#"
   xmlns:svg="http://www.w3.org/2000/svg"
   xmlns="http://www.w3.org/2000/svg"
   xmlns:sodipodi="http://sodipodi.sourceforge.net/DTD/sodipodi-0.dtd"
   xmlns:inkscape="http://www.inkscape.org/namespaces/inkscape"
   viewBox="0 0 48 48"
   version="1.1"
   id="svg16"
   sodipodi:docname="mx-network-assistant6.svg"
   inkscape:version="0.92.4 (5da689c313, 2019-01-14)">
  <metadata
     id="metadata22">
    <rdf:RDF>
      <cc:Work
         rdf:about="">
        <dc:format>image/svg+xml</dc:format>
        <dc:type
           rdf:resource="http://purl.org/dc/dcmitype/StillImage" />
        <dc:title></dc:title>
      </cc:Work>
    </rdf:RDF>
  </metadata>
  <defs
     id="defs20" />
  <sodipodi:namedview
     pagecolor="#ffffff"
     bordercolor="#666666"
     borderopacity="1"
     objecttolerance="10"
     gridtolerance="10"
     guidetolerance="10"
     inkscape:pageopacity="0"
     inkscape:pageshadow="2"
     inkscape:window-width="1876"
     inkscape:window-height="1054"
     id="namedview18"
     showgrid="false"
     inkscape:zoom="4.9166667"
     inkscape:cx="-64.067796"
     inkscape:cy="36.192377"
     inkscape:window-x="44"
     inkscape:window-y="0"
     inkscape:window-maximized="1"
     inkscape:current-layer="g1012" />
  <g
     id="g4"
     transform="translate(-1.6271186,-2.8474576)">
    <rect
       width="36"
       height="32"
       x="6"
       y="8"
       style="fill:#292929;fill-opacity:1"
       id="rect2" />
  </g>
  <rect
     x="9.9661016"
     y="-15.949152"
     width="3"
     height="8"
     transform="scale(1,-1)"
     rx="0"
     style="opacity:1;fill:#ffcb3b;fill-opacity:1"
     id="rect6" />
  <path
     d="m 6.0823244,38.779661 c -3.9031477,0 -4.8789346,-0.967886 -4.8789346,-3.871543 V 5.8715433 C 1.2033898,2.9678858 2.1791767,2 6.0823244,2 H 37.307506 c 3.903148,0 4.878935,0.9678858 4.878935,3.8715433 V 34.908118 c 0,2.903657 -0.975787,3.871543 -4.878935,3.871543 z M 13.88862,30.068689 h 2.927361 v 3.871543 h 9.757869 v -3.871543 h 2.927361 v -2.903658 h 6.830508 V 9.7430865 c 0,-1.9357716 0,-2.9036574 -1.46368,-2.9036574 H 8.5217917 c -1.4636803,0 -1.4636803,0.9678858 -1.4636803,2.9036574 V 27.165031 H 13.88862 Z"
     style="fill:#909ea9;fill-opacity:1;stroke-width:0.97182834"
     id="path8"
     inkscape:connector-curvature="0" />
  <rect
     x="16.559322"
     y="-15.949152"
     width="3"
     height="8"
     transform="scale(1,-1)"
     rx="0"
     style="opacity:1;fill:#ffcb3b;fill-opacity:1"
     id="rect10" />
  <rect
     x="23.355928"
     y="-15.949152"
     width="3"
     height="8"
     transform="scale(1,-1)"
     rx="0"
     style="opacity:1;fill:#ffcb3b;fill-opacity:1"
     id="rect12" />
  <rect
     x="30.15254"
     y="-15.949153"
     width="3"
     height="8"
     transform="scale(1,-1)"
     rx="0"
     style="opacity:1;fill:#ffcb3b;fill-opacity:1"
     id="rect14" />
  <g
     id="g887"
     transform="matrix(0.05491287,0,5.1947693e-4,0.05442277,-44.373705,35.909124)">
    <path
       id="path873"
       d="m 369.89831,248.94916 a 121.49152,115.52542 0 1 1 -242.98305,0 121.49152,115.52542 0 1 1 242.98305,0 z"
       style="fill:#ffffff;fill-opacity:1;stroke:#ffffff;stroke-width:49.29999924;stroke-linecap:round"
       inkscape:connector-curvature="0" />
  </g>
  <g
     inkscape:groupmode="layer"
     id="layer1"
     inkscape:label="Layer 1">
    <g
       id="g1012"
       transform="translate(-82.652542,27.711865)">
      <path
         id="path964"
         d="M 6,6 C 4.892,6 4,6.892 4,8 V 9 C 4,7.892 4.892,7 6,7 h 36 c 1.108,0 2,0.892 2,2 V 8 C 44,6.892 43.108,6 42,6 Z"
         style="opacity:0.1;fill:#ffffff"
         inkscape:connector-curvature="0" />
      <rect
         id="rect966"
         y="35"
         x="7"
         height="1"
         width="34"
         style="opacity:0.1;fill:#ffffff" />
      <circle
         id="circle982"
         r="11"
         cy="8.1186438"
         cx="117.76271"
         style="opacity:0.2" />
      <circle
         id="circle984"
         r="11"
         cy="7.3220339"
         cx="117.76271"
         style="fill:#c149c0" />
      <path
         id="path986"
         d="m 115.57368,-0.74174235 -0.17682,2.06742945 a 6.3247678,6.1686594 0 0 0 -1.84956,1.042874 l -1.92668,-0.8845457 -2.01176,3.399482 1.74851,1.1855005 a 6.3247678,6.1686594 0 0 0 -0.0958,1.0402572 6.3247678,6.1686594 0 0 0 0.0918,1.045491 l -1.74716,1.1815751 2.01309,3.3994818 1.92135,-0.883237 a 6.3247678,6.1686594 0 0 0 1.8522,1.03633 l 0.17683,2.072667 h 4.02488 l 0.1782,-2.06743 a 6.3247678,6.1686594 0 0 0 1.84819,-1.042876 l 1.92667,0.884546 2.01309,-3.3994818 -1.74981,-1.1855004 a 6.3247678,6.1686594 0 0 0 0.097,-1.0402571 6.3247678,6.1686594 0 0 0 -0.0931,-1.0441827 l 1.74581,-1.1789582 -2.01175,-3.4007904 -1.92267,0.8832371 a 6.3247678,6.1686594 0 0 0 -1.85212,-1.0363314 l -0.1783,-2.07266337 h -4.02483 z m 2.01312,5.60822895 a 2.2999033,2.2431607 0 0 1 2.29898,2.2427685 2.2999033,2.2431607 0 0 1 -2.29898,2.2427682 2.2999033,2.2431607 0 0 1 -2.30031,-2.2427682 2.2999033,2.2431607 0 0 1 2.30031,-2.2427685 z"
         style="fill:#ffffff;stroke-width:1.31903315"
         inkscape:connector-curvature="0" />
    </g>
    <g
       id="g1017" />
  </g>
</svg>
